<svg id="svg" version="1.1" width="400" height="192.92604501607718" viewBox="0 0 400 192.92604501607718" xmlns="http://www.w3.org/2000/svg" xmlns:xlink="http://www.w3.org/1999/xlink" ><g id="svgg"><path id="path0" d="" stroke="none" fill="#000000" fill-rule="evenodd"></path><path id="path1" d="M48.327 21.661 C 48.276 21.795,48.257 24.595,48.285 27.884 L 48.336 33.864 51.809 33.960 L 55.282 34.057 55.328 46.406 C 55.354 53.198,55.310 58.850,55.232 58.965 C 55.091 59.172,53.127 60.801,49.590 63.646 C 48.582 64.457,47.713 65.175,47.660 65.241 C 47.607 65.308,46.869 65.910,46.020 66.579 C 45.171 67.248,44.433 67.850,44.380 67.917 C 44.299 68.020,35.717 75.024,33.382 76.893 C 30.469 79.225,22.554 85.725,22.045 86.203 L 21.418 86.793 21.418 94.240 C 21.418 98.337,21.440 101.709,21.466 101.733 C 21.493 101.758,27.506 101.823,34.829 101.878 L 48.143 101.978 48.143 130.439 L 48.143 158.900 34.829 159.000 C 27.506 159.055,21.492 159.120,21.464 159.145 C 21.436 159.169,21.436 161.946,21.464 165.316 L 21.515 171.442 40.991 171.492 C 56.445 171.531,60.500 171.491,60.622 171.299 C 60.891 170.875,60.819 89.840,60.550 89.571 C 60.375 89.396,57.583 89.339,49.165 89.339 C 42.248 89.339,38.013 89.269,38.013 89.156 C 38.013 89.055,38.772 88.343,39.701 87.574 C 40.630 86.804,42.692 85.096,44.284 83.778 C 45.876 82.460,47.397 81.197,47.665 80.971 C 47.933 80.745,48.584 80.220,49.112 79.804 C 49.640 79.389,50.159 78.955,50.265 78.839 C 50.371 78.724,50.892 78.286,51.423 77.865 C 51.954 77.444,52.605 76.906,52.870 76.669 C 53.136 76.432,54.221 75.527,55.282 74.658 C 56.343 73.789,57.255 73.024,57.308 72.959 C 57.361 72.893,58.056 72.321,58.852 71.686 C 59.648 71.052,60.516 70.347,60.781 70.119 C 61.047 69.891,62.089 69.021,63.096 68.185 C 64.104 67.350,65.146 66.482,65.412 66.256 C 65.678 66.030,67.762 64.300,70.043 62.411 C 72.325 60.522,74.985 58.319,75.955 57.516 C 76.924 56.712,78.085 55.755,78.536 55.389 C 78.986 55.023,79.452 54.630,79.571 54.516 C 79.690 54.402,80.482 53.747,81.331 53.059 C 83.241 51.514,83.581 51.232,84.702 50.265 C 85.194 49.841,86.235 48.973,87.015 48.336 C 89.373 46.411,96.662 40.379,98.360 38.946 C 99.235 38.207,99.953 37.500,99.956 37.374 C 99.958 37.247,99.964 33.714,99.970 29.522 C 99.981 21.188,99.999 21.311,98.890 22.333 C 98.572 22.627,97.834 23.254,97.250 23.726 C 96.667 24.199,95.837 24.893,95.406 25.269 C 94.459 26.096,93.961 26.511,92.492 27.702 C 91.872 28.204,91.322 28.667,91.269 28.731 C 91.216 28.795,90.738 29.189,90.207 29.608 C 89.677 30.026,88.890 30.677,88.459 31.055 C 88.028 31.432,87.463 31.915,87.202 32.127 C 86.942 32.340,86.252 32.900,85.670 33.373 C 85.088 33.846,84.259 34.541,83.828 34.917 C 82.881 35.743,82.384 36.159,80.914 37.350 C 80.295 37.852,79.744 38.315,79.691 38.379 C 79.638 38.443,79.161 38.837,78.630 39.256 C 78.099 39.674,77.313 40.325,76.882 40.703 C 76.077 41.408,75.911 41.547,74.096 43.028 C 73.512 43.504,72.683 44.199,72.254 44.571 C 71.825 44.944,71.007 45.639,70.437 46.117 C 69.867 46.594,69.185 47.180,68.922 47.419 C 67.855 48.388,67.814 48.112,67.921 40.714 L 68.017 34.057 71.386 34.004 C 73.784 33.966,74.797 33.883,74.904 33.715 C 75.165 33.303,75.094 21.915,74.829 21.650 C 74.483 21.304,48.460 21.315,48.327 21.661 M321.555 110.999 C 321.504 111.131,321.485 115.321,321.513 120.309 L 321.563 129.378 328.545 129.428 L 335.527 129.479 336.088 130.040 C 337.356 131.308,342.400 137.267,342.371 137.463 C 342.354 137.580,342.186 138.273,341.999 139.005 C 341.524 140.859,342.284 144.591,343.260 145.194 C 343.620 145.416,343.477 146.281,342.993 146.809 C 342.735 147.092,341.974 148.017,341.303 148.866 C 337.435 153.761,337.854 153.463,336.125 152.547 C 327.297 147.871,317.545 158.389,322.990 166.715 C 327.198 173.150,336.362 173.095,340.138 166.611 C 341.922 163.547,342.125 158.958,340.574 156.778 C 340.057 156.052,340.096 155.985,343.070 152.436 C 343.471 151.959,344.470 150.756,345.291 149.764 C 346.643 148.131,346.832 147.972,347.294 148.086 C 348.995 148.502,349.973 148.587,350.766 148.387 C 351.881 148.107,352.229 148.250,352.781 149.213 C 353.036 149.659,354.909 152.836,356.943 156.273 C 360.071 161.559,360.604 162.568,360.398 162.824 C 360.264 162.991,358.353 164.923,356.151 167.118 C 353.948 169.313,352.147 171.197,352.147 171.303 C 352.147 171.633,352.299 171.637,365.027 171.584 C 378.333 171.529,377.849 171.571,376.983 170.556 C 376.748 170.280,375.961 169.325,375.234 168.433 C 374.508 167.541,373.626 166.464,373.276 166.040 C 371.297 163.644,367.152 158.534,366.783 158.035 C 366.185 157.226,365.896 157.296,364.747 158.530 C 363.368 160.011,363.525 160.162,359.575 153.537 C 357.665 150.332,355.907 147.416,355.668 147.055 C 355.109 146.212,355.119 146.068,355.819 144.931 C 356.140 144.409,356.537 143.587,356.702 143.105 C 357.190 141.670,358.762 141.396,359.402 142.633 C 360.380 144.525,363.397 146.661,366.053 147.342 C 374.388 149.479,381.404 139.477,376.677 132.199 C 371.595 124.375,359.661 126.824,358.287 135.973 C 357.977 138.035,357.956 138.108,357.648 138.226 C 357.158 138.414,356.823 138.164,356.423 137.312 C 354.922 134.119,350.651 132.399,346.743 133.413 C 345.712 133.680,344.629 133.465,344.618 132.991 C 344.616 132.914,344.247 132.459,343.798 131.980 C 343.349 131.501,342.422 130.459,341.739 129.665 C 341.056 128.870,340.377 128.099,340.231 127.952 C 339.358 127.074,339.369 127.192,339.400 119.158 C 339.421 113.999,339.363 111.413,339.221 111.148 C 338.962 110.663,321.739 110.517,321.555 110.999 M335.700 120.103 C 335.740 124.440,335.697 125.720,335.507 125.840 C 334.908 126.220,325.352 126.025,325.139 125.628 C 324.736 124.874,324.881 114.873,325.299 114.579 C 325.581 114.381,326.729 114.348,330.654 114.424 L 335.649 114.520 335.700 120.103 M371.078 131.561 C 375.989 133.938,375.875 141.118,370.890 143.425 C 366.288 145.555,361.564 142.321,361.612 137.075 C 361.652 132.693,366.992 129.582,371.078 131.561 M334.547 155.498 C 338.530 157.553,339.379 163.276,336.135 166.206 C 331.265 170.606,323.781 166.329,325.141 159.924 C 325.955 156.088,331.046 153.692,334.547 155.498 M367.121 163.830 C 367.535 164.313,368.307 165.220,368.837 165.846 C 369.368 166.472,370.091 167.270,370.444 167.619 C 370.996 168.166,371.249 169.034,370.813 168.886 C 370.734 168.859,368.370 168.837,365.557 168.837 C 361.272 168.837,360.444 168.793,360.444 168.564 C 360.444 168.209,365.866 162.827,366.152 162.898 C 366.272 162.928,366.708 163.347,367.121 163.830 " stroke="none" fill="#404040" fill-rule="evenodd"></path><path id="path2" d="M111.006 21.572 C 110.818 21.692,110.640 29.856,110.749 33.349 C 110.754 33.491,110.854 33.574,110.972 33.535 C 111.350 33.409,122.721 21.920,122.721 21.664 C 122.721 21.386,111.439 21.298,111.006 21.572 M137.964 21.806 C 133.029 22.752,131.118 23.434,127.577 25.514 C 124.722 27.190,121.627 29.807,119.615 32.245 C 119.148 32.812,118.654 33.396,118.517 33.542 C 117.763 34.353,115.688 37.925,115.079 39.460 C 114.034 42.099,113.702 43.189,112.936 46.503 C 112.603 47.946,112.280 80.527,112.587 81.766 L 112.694 82.200 118.665 82.200 C 124.393 82.200,124.645 82.184,124.839 81.823 C 124.974 81.569,125.038 76.405,125.034 66.036 C 125.030 56.356,125.102 50.100,125.228 49.210 C 125.427 47.808,126.115 45.235,126.390 44.863 C 126.468 44.756,126.595 44.466,126.671 44.218 C 128.126 39.480,135.075 34.520,140.859 34.092 C 143.895 33.867,148.730 35.030,149.928 36.273 C 149.981 36.328,150.412 36.634,150.887 36.952 C 153.143 38.464,156.018 41.918,157.391 44.766 C 158.930 47.958,158.970 48.502,158.979 66.630 C 158.984 74.993,159.038 81.918,159.100 82.018 C 159.249 82.260,171.092 82.261,171.242 82.019 C 171.437 81.703,171.365 50.355,171.165 48.722 C 169.961 38.883,165.394 31.488,157.126 25.992 C 156.375 25.493,155.693 25.084,155.609 25.084 C 155.526 25.084,155.320 24.969,155.153 24.827 C 154.985 24.686,154.370 24.377,153.787 24.142 C 153.203 23.906,152.552 23.634,152.340 23.537 C 148.700 21.878,141.877 21.056,137.964 21.806 M207.866 21.716 C 199.621 22.776,191.019 27.117,188.632 31.422 C 188.534 31.598,188.179 32.089,187.841 32.513 C 187.504 32.938,187.170 33.415,187.100 33.575 C 187.030 33.734,186.815 34.124,186.622 34.443 C 178.520 47.857,182.049 69.590,193.536 77.024 C 194.919 77.919,196.777 78.966,197.415 79.209 C 197.694 79.315,198.519 79.630,199.250 79.910 C 204.880 82.062,206.409 82.196,225.319 82.198 C 240.425 82.200,240.802 82.191,240.997 81.826 C 241.303 81.254,241.265 70.402,240.955 69.990 C 240.734 69.696,239.297 69.664,223.830 69.607 L 206.946 69.544 205.499 69.095 C 203.647 68.520,202.015 67.697,200.675 66.662 C 194.944 62.232,192.981 51.596,196.332 43.126 C 196.626 42.383,196.986 41.638,197.131 41.471 C 197.276 41.303,197.395 41.104,197.395 41.028 C 197.395 40.163,201.249 36.350,203.029 35.455 C 205.994 33.964,204.580 34.063,223.637 34.002 C 239.262 33.951,240.734 33.919,240.955 33.627 C 241.265 33.217,241.303 22.364,240.997 21.791 C 240.741 21.314,211.512 21.247,207.866 21.716 M252.195 21.778 C 252.195 21.976,252.746 22.957,253.420 23.958 C 254.094 24.959,254.680 25.860,254.722 25.961 C 254.765 26.063,255.399 27.057,256.132 28.172 C 257.819 30.737,259.796 33.774,260.591 35.022 C 260.929 35.552,261.770 36.855,262.460 37.916 C 263.150 38.977,264.130 40.497,264.637 41.293 C 265.144 42.089,266.155 43.633,266.884 44.726 C 267.614 45.818,268.210 46.752,268.210 46.802 C 268.210 46.852,268.514 47.325,268.886 47.853 C 269.257 48.382,269.561 48.857,269.561 48.909 C 269.561 48.961,269.992 49.627,270.518 50.389 C 271.045 51.150,271.418 51.869,271.348 51.984 C 271.037 52.501,267.236 58.350,265.153 61.519 C 264.712 62.190,264.351 62.770,264.351 62.809 C 264.351 62.866,263.374 64.368,262.030 66.377 C 261.923 66.536,261.476 67.231,261.035 67.921 C 259.596 70.175,257.370 73.602,256.997 74.136 C 256.797 74.423,256.633 74.694,256.633 74.736 C 256.633 74.842,253.512 79.597,252.784 80.600 C 251.564 82.281,251.240 82.200,259.136 82.200 L 266.076 82.200 266.516 81.589 C 266.758 81.253,267.521 80.218,268.210 79.288 C 268.900 78.357,269.595 77.408,269.754 77.178 C 269.913 76.947,270.347 76.342,270.719 75.832 C 271.090 75.322,271.524 74.718,271.684 74.488 C 271.843 74.258,272.407 73.477,272.938 72.751 C 274.211 71.010,276.930 67.281,278.190 65.546 C 278.745 64.783,279.276 64.066,279.370 63.953 C 279.465 63.840,279.644 63.558,279.768 63.326 C 280.117 62.675,280.641 62.816,281.250 63.724 C 281.553 64.175,282.203 65.065,282.696 65.702 C 283.188 66.339,283.625 66.947,283.667 67.054 C 283.709 67.161,284.357 68.073,285.108 69.080 C 286.608 71.094,288.597 73.819,289.050 74.481 C 289.209 74.714,289.717 75.395,290.180 75.995 C 290.642 76.595,291.318 77.521,291.682 78.051 C 292.981 79.947,294.168 81.567,294.487 81.881 C 294.832 82.220,310.469 82.391,310.467 82.055 C 310.466 81.975,310.314 81.683,310.129 81.405 C 308.977 79.677,306.123 75.610,305.806 75.245 C 305.664 75.082,305.044 74.214,304.429 73.316 C 303.814 72.418,302.876 71.076,302.345 70.333 C 301.814 69.590,301.141 68.635,300.848 68.210 C 300.556 67.786,299.491 66.266,298.481 64.834 C 296.547 62.089,295.630 60.787,294.406 59.045 C 293.996 58.461,293.224 57.376,292.692 56.633 C 292.159 55.890,291.581 55.065,291.407 54.800 C 291.233 54.534,290.719 53.825,290.263 53.223 C 289.135 51.729,289.011 52.112,291.896 48.143 C 292.205 47.718,292.776 46.915,293.165 46.358 C 294.108 45.010,294.562 44.364,298.698 38.495 C 302.945 32.467,303.321 31.932,304.229 30.632 C 304.617 30.075,305.204 29.253,305.531 28.806 C 305.858 28.359,306.543 27.404,307.052 26.684 C 307.561 25.963,308.538 24.602,309.223 23.658 C 309.908 22.715,310.468 21.825,310.468 21.680 C 310.468 21.464,309.116 21.418,302.689 21.418 L 294.911 21.418 294.419 21.949 C 294.149 22.241,293.423 23.174,292.806 24.023 C 292.189 24.872,291.178 26.243,290.560 27.069 C 289.941 27.896,289.436 28.626,289.436 28.693 C 289.436 28.760,289.305 28.952,289.146 29.120 C 288.861 29.422,288.327 30.145,285.287 34.352 C 284.438 35.527,283.309 37.089,282.779 37.822 C 282.248 38.555,281.569 39.506,281.271 39.934 C 280.579 40.927,280.172 40.918,279.476 39.896 C 279.170 39.446,277.964 37.775,276.796 36.182 C 275.628 34.589,274.517 33.068,274.327 32.803 C 274.137 32.537,273.529 31.700,272.977 30.941 C 272.425 30.182,271.843 29.372,271.684 29.141 C 271.284 28.561,269.983 26.770,269.777 26.517 C 269.685 26.403,269.274 25.839,268.864 25.263 C 267.905 23.915,266.928 22.619,266.365 21.949 L 265.920 21.418 259.057 21.418 C 252.487 21.418,252.195 21.434,252.195 21.778 M321.666 21.791 C 321.430 22.233,321.391 33.350,321.625 33.718 C 321.742 33.903,324.346 33.969,333.151 34.007 L 344.525 34.057 344.624 58.080 C 344.678 71.293,344.744 82.125,344.769 82.151 C 344.960 82.354,356.776 82.166,356.911 81.959 C 356.997 81.826,357.110 70.994,357.164 57.887 L 357.260 34.057 367.873 33.956 C 373.710 33.901,378.507 33.836,378.534 33.812 C 378.847 33.525,378.534 21.792,378.209 21.618 C 377.403 21.187,321.899 21.357,321.666 21.791 M207.227 46.840 C 207.219 47.168,207.223 56.100,207.232 56.778 C 207.236 57.097,208.169 57.115,224.097 57.115 L 240.958 57.115 241.075 56.681 C 241.226 56.115,241.226 47.503,241.075 46.937 L 240.958 46.503 224.097 46.503 C 208.171 46.503,207.235 46.521,207.227 46.840 M112.611 111.063 C 112.547 111.230,112.494 113.698,112.494 116.546 C 112.494 119.394,112.547 121.862,112.611 122.030 C 112.716 122.304,114.133 122.335,126.650 122.335 C 143.467 122.335,145.711 122.511,148.770 124.071 C 157.394 128.471,161.918 140.124,158.321 148.673 C 157.864 149.760,156.857 151.742,156.704 151.857 C 156.634 151.910,156.410 152.214,156.207 152.533 C 153.905 156.147,149.044 158.913,143.671 159.666 C 141.861 159.920,124.430 160.141,124.220 159.913 C 124.195 159.887,124.130 154.481,124.075 147.902 L 123.975 135.938 118.283 135.938 L 112.590 135.938 112.537 153.304 C 112.508 162.856,112.532 170.866,112.589 171.105 L 112.694 171.539 127.693 171.538 C 148.845 171.538,150.548 171.301,157.164 167.436 C 160.117 165.711,165.943 160.573,165.943 159.694 C 165.943 159.540,166.008 159.386,166.088 159.350 C 166.270 159.269,167.294 157.770,167.294 157.583 C 167.294 157.507,167.511 157.101,167.776 156.681 C 168.260 155.915,169.471 152.991,170.054 151.182 C 170.939 148.437,171.707 142.898,171.473 140.936 C 171.412 140.416,171.308 139.383,171.244 138.640 C 170.076 125.153,160.950 114.687,147.709 111.651 C 143.709 110.734,112.935 110.218,112.611 111.063 M277.279 111.061 C 263.575 113.160,252.891 123.626,251.998 135.825 C 251.718 139.654,251.755 171.022,252.041 171.307 C 252.436 171.703,264.081 171.632,264.234 171.234 C 264.298 171.066,264.351 163.393,264.351 154.182 C 264.351 133.066,264.458 132.320,268.041 128.487 C 274.115 121.990,287.267 121.703,293.947 127.923 C 295.457 129.328,296.779 131.470,297.407 133.526 C 298.126 135.878,298.165 136.845,298.241 153.883 C 298.282 163.116,298.360 170.867,298.414 171.107 L 298.513 171.544 304.539 171.493 L 310.564 171.442 310.616 153.497 C 310.675 132.704,310.738 133.589,308.843 128.413 C 307.457 124.627,302.947 119.311,298.565 116.301 C 292.409 112.071,284.076 110.020,277.279 111.061 M207.139 111.234 C 200.195 112.311,193.665 116.119,189.095 121.756 C 188.622 122.340,188.187 122.861,188.128 122.914 C 187.565 123.422,185.086 127.749,184.536 129.185 C 184.414 129.503,184.133 130.236,183.912 130.813 C 181.948 135.928,181.683 142.837,183.204 149.252 C 183.601 150.926,184.993 154.620,185.467 155.254 C 185.554 155.371,185.850 155.892,186.125 156.412 C 188.146 160.234,191.813 164.207,195.562 166.638 C 196.199 167.051,196.763 167.441,196.816 167.504 C 197.035 167.765,200.875 169.569,202.219 170.042 C 208.038 172.089,214.983 172.096,221.129 170.061 C 222.641 169.560,225.872 168.071,226.716 167.485 C 226.986 167.297,227.728 166.810,228.365 166.402 C 230.830 164.823,234.181 161.403,236.282 158.321 C 237.164 157.029,239.267 153.109,239.267 152.759 C 239.267 152.666,239.388 152.317,239.536 151.983 C 242.990 144.177,241.495 131.890,236.097 123.723 C 234.607 121.468,228.802 115.774,227.993 115.774 C 227.950 115.774,227.456 115.471,226.894 115.101 C 221.779 111.733,213.887 110.188,207.139 111.234 M213.429 122.732 C 217.572 123.157,220.940 124.837,224.167 128.087 C 225.043 128.969,225.760 129.766,225.760 129.858 C 225.760 129.950,225.871 130.140,226.008 130.280 C 226.348 130.630,227.336 132.281,227.836 133.333 C 231.056 140.116,229.747 148.410,224.561 154.084 C 223.657 155.074,221.310 157.067,221.049 157.067 C 220.983 157.067,220.576 157.289,220.145 157.561 C 215.859 160.267,206.881 160.460,203.940 157.910 C 203.773 157.765,203.567 157.646,203.483 157.646 C 202.774 157.646,199.579 154.858,198.062 152.915 C 189.192 141.556,195.979 124.168,209.841 122.738 C 210.690 122.651,211.397 122.568,211.412 122.553 C 211.428 122.539,212.335 122.620,213.429 122.732 M275.264 139.684 C 275.113 139.928,275.120 170.834,275.272 171.228 C 275.378 171.505,276.046 171.539,281.348 171.539 L 287.306 171.539 287.411 171.105 C 287.469 170.866,287.492 163.681,287.463 155.137 L 287.410 139.604 281.393 139.553 C 277.793 139.523,275.331 139.575,275.264 139.684 " stroke="none" fill="#ffffff" fill-rule="evenodd"></path><path id="path3" d="M5.837 3.022 C 5.704 3.076,5.596 3.242,5.596 3.393 C 5.596 3.543,5.422 3.666,5.210 3.666 C 4.995 3.666,4.824 3.795,4.824 3.956 C 4.824 4.115,4.694 4.245,4.534 4.245 C 4.375 4.245,4.245 4.375,4.245 4.534 C 4.245 4.694,4.115 4.824,3.956 4.824 C 3.796 4.824,3.666 4.987,3.666 5.187 C 3.666 5.388,3.494 5.596,3.280 5.652 C 2.670 5.811,2.670 187.146,3.280 187.305 C 3.494 187.361,3.666 187.569,3.666 187.770 C 3.666 187.970,3.796 188.133,3.956 188.133 C 4.115 188.133,4.245 188.263,4.245 188.423 C 4.245 188.582,4.375 188.712,4.534 188.712 C 4.694 188.712,4.824 188.845,4.824 189.008 C 4.824 189.170,4.976 189.359,5.162 189.427 C 5.347 189.495,5.569 189.666,5.654 189.807 C 5.782 190.019,39.015 190.063,200.325 190.063 L 394.842 190.063 395.299 189.570 C 395.550 189.300,395.755 188.996,395.755 188.895 C 395.755 188.794,395.885 188.712,396.044 188.712 C 396.204 188.712,396.334 188.638,396.334 188.549 C 396.334 188.459,396.507 188.185,396.720 187.940 C 397.104 187.497,397.106 187.218,397.106 96.479 C 397.106 5.739,397.104 5.460,396.720 5.017 C 396.507 4.772,396.334 4.498,396.334 4.408 C 396.334 4.319,396.204 4.245,396.044 4.245 C 395.885 4.245,395.755 4.115,395.755 3.956 C 395.755 3.763,395.562 3.666,395.176 3.666 C 394.810 3.666,394.597 3.567,394.597 3.397 C 394.597 3.250,394.460 3.076,394.292 3.011 C 393.927 2.871,6.184 2.882,5.837 3.022 M74.829 21.650 C 75.094 21.915,75.165 33.303,74.904 33.715 C 74.797 33.883,73.784 33.966,71.386 34.004 L 68.017 34.057 67.921 40.714 C 67.814 48.112,67.855 48.388,68.922 47.419 C 69.185 47.180,69.867 46.594,70.437 46.117 C 71.007 45.639,71.825 44.944,72.254 44.571 C 72.683 44.199,73.512 43.504,74.096 43.028 C 75.911 41.547,76.077 41.408,76.882 40.703 C 77.313 40.325,78.099 39.674,78.630 39.256 C 79.161 38.837,79.638 38.443,79.691 38.379 C 79.744 38.315,80.295 37.852,80.914 37.350 C 82.384 36.159,82.881 35.743,83.828 34.917 C 84.259 34.541,85.088 33.846,85.670 33.373 C 86.252 32.900,86.942 32.340,87.202 32.127 C 87.463 31.915,88.028 31.432,88.459 31.055 C 88.890 30.677,89.677 30.026,90.207 29.608 C 90.738 29.189,91.216 28.795,91.269 28.731 C 91.322 28.667,91.872 28.204,92.492 27.702 C 93.961 26.511,94.459 26.096,95.406 25.269 C 95.837 24.893,96.667 24.199,97.250 23.726 C 97.834 23.254,98.572 22.627,98.890 22.333 C 99.999 21.311,99.981 21.188,99.970 29.522 C 99.964 33.714,99.958 37.247,99.956 37.374 C 99.953 37.500,99.235 38.207,98.360 38.946 C 96.662 40.379,89.373 46.411,87.015 48.336 C 86.235 48.973,85.194 49.841,84.702 50.265 C 83.581 51.232,83.241 51.514,81.331 53.059 C 80.482 53.747,79.690 54.402,79.571 54.516 C 79.452 54.630,78.986 55.023,78.536 55.389 C 78.085 55.755,76.924 56.712,75.955 57.516 C 74.985 58.319,72.325 60.522,70.043 62.411 C 67.762 64.300,65.678 66.030,65.412 66.256 C 65.146 66.482,64.104 67.350,63.096 68.185 C 62.089 69.021,61.047 69.891,60.781 70.119 C 60.516 70.347,59.648 71.052,58.852 71.686 C 58.056 72.321,57.361 72.893,57.308 72.959 C 57.255 73.024,56.343 73.789,55.282 74.658 C 54.221 75.527,53.136 76.432,52.870 76.669 C 52.605 76.906,51.954 77.444,51.423 77.865 C 50.892 78.286,50.371 78.724,50.265 78.839 C 50.159 78.955,49.640 79.389,49.112 79.804 C 48.584 80.220,47.933 80.745,47.665 80.971 C 47.397 81.197,45.876 82.460,44.284 83.778 C 42.692 85.096,40.630 86.804,39.701 87.574 C 38.772 88.343,38.013 89.055,38.013 89.156 C 38.013 89.269,42.248 89.339,49.165 89.339 C 57.583 89.339,60.375 89.396,60.550 89.571 C 60.819 89.840,60.891 170.875,60.622 171.299 C 60.500 171.491,56.445 171.531,40.991 171.492 L 21.515 171.442 21.464 165.316 C 21.436 161.946,21.436 159.169,21.464 159.145 C 21.492 159.120,27.506 159.055,34.829 159.000 L 48.143 158.900 48.143 130.439 L 48.143 101.978 34.829 101.878 C 27.506 101.823,21.493 101.758,21.466 101.733 C 21.440 101.709,21.418 98.337,21.418 94.240 L 21.418 86.793 22.045 86.203 C 22.554 85.725,30.469 79.225,33.382 76.893 C 35.717 75.024,44.299 68.020,44.380 67.917 C 44.433 67.850,45.171 67.248,46.020 66.579 C 46.869 65.910,47.607 65.308,47.660 65.241 C 47.713 65.175,48.582 64.457,49.590 63.646 C 53.127 60.801,55.091 59.172,55.232 58.965 C 55.310 58.850,55.354 53.198,55.328 46.406 L 55.282 34.057 51.809 33.960 L 48.336 33.864 48.285 27.884 C 48.257 24.595,48.276 21.795,48.327 21.661 C 48.460 21.315,74.483 21.304,74.829 21.650 M122.721 21.664 C 122.721 21.920,111.350 33.409,110.972 33.535 C 110.854 33.574,110.754 33.491,110.749 33.349 C 110.640 29.856,110.818 21.692,111.006 21.572 C 111.439 21.298,122.721 21.386,122.721 21.664 M144.857 21.717 C 147.855 22.148,150.937 22.898,152.340 23.537 C 152.552 23.634,153.203 23.906,153.787 24.142 C 154.370 24.377,154.985 24.686,155.153 24.827 C 155.320 24.969,155.526 25.084,155.609 25.084 C 155.693 25.084,156.375 25.493,157.126 25.992 C 165.394 31.488,169.961 38.883,171.165 48.722 C 171.365 50.355,171.437 81.703,171.242 82.019 C 171.092 82.261,159.249 82.260,159.100 82.018 C 159.038 81.918,158.984 74.993,158.979 66.630 C 158.970 48.502,158.930 47.958,157.391 44.766 C 156.018 41.918,153.143 38.464,150.887 36.952 C 150.412 36.634,149.981 36.328,149.928 36.273 C 148.730 35.030,143.895 33.867,140.859 34.092 C 135.075 34.520,128.126 39.480,126.671 44.218 C 126.595 44.466,126.468 44.756,126.390 44.863 C 126.115 45.235,125.427 47.808,125.228 49.210 C 125.102 50.100,125.030 56.356,125.034 66.036 C 125.038 76.405,124.974 81.569,124.839 81.823 C 124.645 82.184,124.393 82.200,118.665 82.200 L 112.694 82.200 112.587 81.766 C 112.280 80.527,112.603 47.946,112.936 46.503 C 113.702 43.189,114.034 42.099,115.079 39.460 C 115.688 37.925,117.763 34.353,118.517 33.542 C 118.654 33.396,119.148 32.812,119.615 32.245 C 125.843 24.697,136.029 20.449,144.857 21.717 M240.997 21.791 C 241.303 22.364,241.265 33.217,240.955 33.627 C 240.734 33.919,239.262 33.951,223.637 34.002 C 204.580 34.063,205.994 33.964,203.029 35.455 C 201.249 36.350,197.395 40.163,197.395 41.028 C 197.395 41.104,197.276 41.303,197.131 41.471 C 195.173 43.728,194.101 52.601,195.228 57.212 C 196.098 60.770,197.160 62.939,199.228 65.385 C 200.404 66.775,203.029 68.328,205.499 69.095 L 206.946 69.544 223.830 69.607 C 239.297 69.664,240.734 69.696,240.955 69.990 C 241.265 70.402,241.303 81.254,240.997 81.826 C 240.802 82.191,240.425 82.200,225.319 82.198 C 206.409 82.196,204.880 82.062,199.250 79.910 C 198.519 79.630,197.694 79.315,197.415 79.209 C 188.352 75.753,182.151 64.325,182.151 51.076 C 182.151 45.548,183.945 38.876,186.622 34.443 C 186.815 34.124,187.030 33.734,187.100 33.575 C 187.170 33.415,187.504 32.938,187.841 32.513 C 188.179 32.089,188.534 31.598,188.632 31.422 C 191.019 27.117,199.621 22.776,207.866 21.716 C 211.512 21.247,240.741 21.314,240.997 21.791 M266.365 21.949 C 266.928 22.619,267.905 23.915,268.864 25.263 C 269.274 25.839,269.685 26.403,269.777 26.517 C 269.983 26.770,271.284 28.561,271.684 29.141 C 271.843 29.372,272.425 30.182,272.977 30.941 C 273.529 31.700,274.137 32.537,274.327 32.803 C 274.517 33.068,275.628 34.589,276.796 36.182 C 277.964 37.775,279.170 39.446,279.476 39.896 C 280.172 40.918,280.579 40.927,281.271 39.934 C 281.569 39.506,282.248 38.555,282.779 37.822 C 283.309 37.089,284.438 35.527,285.287 34.352 C 288.327 30.145,288.861 29.422,289.146 29.120 C 289.305 28.952,289.436 28.760,289.436 28.693 C 289.436 28.626,289.941 27.896,290.560 27.069 C 291.178 26.243,292.189 24.872,292.806 24.023 C 293.423 23.174,294.149 22.241,294.419 21.949 L 294.911 21.418 302.689 21.418 C 309.116 21.418,310.468 21.464,310.468 21.680 C 310.468 21.825,309.908 22.715,309.223 23.658 C 308.538 24.602,307.561 25.963,307.052 26.684 C 306.543 27.404,305.858 28.359,305.531 28.806 C 305.204 29.253,304.617 30.075,304.229 30.632 C 303.321 31.932,302.945 32.467,298.698 38.495 C 294.562 44.364,294.108 45.010,293.165 46.358 C 292.776 46.915,292.205 47.718,291.896 48.143 C 289.011 52.112,289.135 51.729,290.263 53.223 C 290.719 53.825,291.233 54.534,291.407 54.800 C 291.581 55.065,292.159 55.890,292.692 56.633 C 293.224 57.376,293.996 58.461,294.406 59.045 C 295.630 60.787,296.547 62.089,298.481 64.834 C 299.491 66.266,300.556 67.786,300.848 68.210 C 301.141 68.635,301.814 69.590,302.345 70.333 C 302.876 71.076,303.814 72.418,304.429 73.316 C 305.044 74.214,305.664 75.082,305.806 75.245 C 306.123 75.610,308.977 79.677,310.129 81.405 C 310.314 81.683,310.466 81.975,310.467 82.055 C 310.469 82.391,294.832 82.220,294.487 81.881 C 294.168 81.567,292.981 79.947,291.682 78.051 C 291.318 77.521,290.642 76.595,290.180 75.995 C 289.717 75.395,289.209 74.714,289.050 74.481 C 288.597 73.819,286.608 71.094,285.108 69.080 C 284.357 68.073,283.709 67.161,283.667 67.054 C 283.625 66.947,283.188 66.339,282.696 65.702 C 282.203 65.065,281.553 64.175,281.250 63.724 C 280.641 62.816,280.117 62.675,279.768 63.326 C 279.644 63.558,279.465 63.840,279.370 63.953 C 279.276 64.066,278.745 64.783,278.190 65.546 C 276.930 67.281,274.211 71.010,272.938 72.751 C 272.407 73.477,271.843 74.258,271.684 74.488 C 271.524 74.718,271.090 75.322,270.719 75.832 C 270.347 76.342,269.913 76.947,269.754 77.178 C 269.595 77.408,268.900 78.357,268.210 79.288 C 267.521 80.218,266.758 81.253,266.516 81.589 L 266.076 82.200 259.136 82.200 C 251.240 82.200,251.564 82.281,252.784 80.600 C 253.512 79.597,256.633 74.842,256.633 74.736 C 256.633 74.694,256.797 74.423,256.997 74.136 C 257.370 73.602,259.596 70.175,261.035 67.921 C 261.476 67.231,261.923 66.536,262.030 66.377 C 263.374 64.368,264.351 62.866,264.351 62.809 C 264.351 62.770,264.712 62.190,265.153 61.519 C 267.236 58.350,271.037 52.501,271.348 51.984 C 271.418 51.869,271.045 51.150,270.518 50.389 C 269.992 49.627,269.561 48.961,269.561 48.909 C 269.561 48.857,269.257 48.382,268.886 47.853 C 268.514 47.325,268.210 46.852,268.210 46.802 C 268.210 46.752,267.614 45.818,266.884 44.726 C 266.155 43.633,265.144 42.089,264.637 41.293 C 264.130 40.497,263.150 38.977,262.460 37.916 C 261.770 36.855,260.929 35.552,260.591 35.022 C 259.796 33.774,257.819 30.737,256.132 28.172 C 255.399 27.057,254.765 26.063,254.722 25.961 C 254.680 25.860,254.094 24.959,253.420 23.958 C 251.547 21.176,251.011 21.418,259.057 21.418 L 265.920 21.418 266.365 21.949 M378.209 21.618 C 378.534 21.792,378.847 33.525,378.534 33.812 C 378.507 33.836,373.710 33.901,367.873 33.956 L 357.260 34.057 357.164 57.887 C 357.110 70.994,356.997 81.826,356.911 81.959 C 356.776 82.166,344.960 82.354,344.769 82.151 C 344.744 82.125,344.678 71.293,344.624 58.080 L 344.525 34.057 333.151 34.007 C 324.346 33.969,321.742 33.903,321.625 33.718 C 321.391 33.350,321.430 22.233,321.666 21.791 C 321.899 21.357,377.403 21.187,378.209 21.618 M241.075 46.937 C 241.226 47.503,241.226 56.115,241.075 56.681 L 240.958 57.115 224.097 57.115 C 208.169 57.115,207.236 57.097,207.232 56.778 C 207.223 56.100,207.219 47.168,207.227 46.840 C 207.235 46.521,208.171 46.503,224.097 46.503 L 240.958 46.503 241.075 46.937 M143.388 111.049 C 158.927 112.578,169.931 123.477,171.244 138.640 C 171.308 139.383,171.412 140.416,171.473 140.936 C 171.707 142.898,170.939 148.437,170.054 151.182 C 169.471 152.991,168.260 155.915,167.776 156.681 C 167.511 157.101,167.294 157.507,167.294 157.583 C 167.294 157.770,166.270 159.269,166.088 159.350 C 166.008 159.386,165.943 159.540,165.943 159.694 C 165.943 160.573,160.117 165.711,157.164 167.436 C 150.548 171.301,148.845 171.538,127.693 171.538 L 112.694 171.539 112.589 171.105 C 112.532 170.866,112.508 162.856,112.537 153.304 L 112.590 135.938 118.283 135.938 L 123.975 135.938 124.075 147.902 C 124.130 154.481,124.195 159.887,124.220 159.913 C 124.244 159.940,128.157 159.961,132.914 159.961 C 143.305 159.961,145.050 159.788,148.770 158.383 C 151.277 157.437,154.898 154.588,156.207 152.533 C 156.410 152.214,156.634 151.910,156.704 151.857 C 156.857 151.742,157.864 149.760,158.321 148.673 C 161.918 140.124,157.394 128.471,148.770 124.071 C 145.711 122.511,143.467 122.335,126.650 122.335 C 114.133 122.335,112.716 122.304,112.611 122.030 C 112.547 121.862,112.494 119.394,112.494 116.546 C 112.494 113.698,112.547 111.230,112.611 111.063 C 112.782 110.617,138.881 110.606,143.388 111.049 M285.384 111.141 C 290.409 111.994,294.796 113.711,298.565 116.301 C 302.947 119.311,307.457 124.627,308.843 128.413 C 310.738 133.589,310.675 132.704,310.616 153.497 L 310.564 171.442 304.539 171.493 L 298.513 171.544 298.414 171.107 C 298.360 170.867,298.282 163.116,298.241 153.883 C 298.158 135.147,298.114 134.526,296.697 131.693 C 291.967 122.242,275.592 120.410,268.041 128.487 C 264.458 132.320,264.351 133.066,264.351 154.182 C 264.351 163.393,264.298 171.066,264.234 171.234 C 264.081 171.632,252.436 171.703,252.041 171.307 C 251.755 171.022,251.718 139.654,251.998 135.825 C 252.759 125.432,260.191 116.544,271.394 112.631 C 276.706 110.776,280.717 110.349,285.384 111.141 M339.221 111.148 C 339.363 111.413,339.421 113.999,339.400 119.158 C 339.369 127.192,339.358 127.074,340.231 127.952 C 340.377 128.099,341.056 128.870,341.739 129.665 C 342.422 130.459,343.349 131.501,343.798 131.980 C 344.247 132.459,344.616 132.914,344.618 132.991 C 344.629 133.465,345.712 133.680,346.743 133.413 C 350.651 132.399,354.922 134.119,356.423 137.312 C 356.823 138.164,357.158 138.414,357.648 138.226 C 357.956 138.108,357.977 138.035,358.287 135.973 C 359.661 126.824,371.595 124.375,376.677 132.199 C 381.404 139.477,374.388 149.479,366.053 147.342 C 363.397 146.661,360.380 144.525,359.402 142.633 C 358.762 141.396,357.190 141.670,356.702 143.105 C 356.537 143.587,356.140 144.409,355.819 144.931 C 355.119 146.068,355.109 146.212,355.668 147.055 C 355.907 147.416,357.665 150.332,359.575 153.537 C 363.525 160.162,363.368 160.011,364.747 158.530 C 365.896 157.296,366.185 157.226,366.783 158.035 C 367.152 158.534,371.297 163.644,373.276 166.040 C 373.626 166.464,374.508 167.541,375.234 168.433 C 375.961 169.325,376.748 170.280,376.983 170.556 C 377.849 171.571,378.333 171.529,365.027 171.584 C 352.299 171.637,352.147 171.633,352.147 171.303 C 352.147 171.197,353.948 169.313,356.151 167.118 C 358.353 164.923,360.264 162.991,360.398 162.824 C 360.604 162.568,360.071 161.559,356.943 156.273 C 354.909 152.836,353.036 149.659,352.781 149.213 C 352.229 148.250,351.881 148.107,350.766 148.387 C 349.973 148.587,348.995 148.502,347.294 148.086 C 346.832 147.972,346.643 148.131,345.291 149.764 C 344.470 150.756,343.471 151.959,343.070 152.436 C 340.096 155.985,340.057 156.052,340.574 156.778 C 342.636 159.675,341.663 165.435,338.575 168.607 C 332.503 174.844,321.554 170.397,321.566 161.698 C 321.576 153.915,329.411 148.991,336.125 152.547 C 337.854 153.463,337.435 153.761,341.303 148.866 C 341.974 148.017,342.735 147.092,342.993 146.809 C 343.477 146.281,343.620 145.416,343.260 145.194 C 342.284 144.591,341.524 140.859,341.999 139.005 C 342.186 138.273,342.354 137.580,342.371 137.463 C 342.400 137.267,337.356 131.308,336.088 130.040 L 335.527 129.479 328.545 129.428 L 321.563 129.378 321.513 120.309 C 321.485 115.321,321.504 111.131,321.555 110.999 C 321.739 110.517,338.962 110.663,339.221 111.148 M215.731 111.149 C 219.612 111.621,223.933 113.151,226.894 115.101 C 227.456 115.471,227.950 115.774,227.993 115.774 C 228.802 115.774,234.607 121.468,236.097 123.723 C 241.495 131.890,242.990 144.177,239.536 151.983 C 239.388 152.317,239.267 152.666,239.267 152.759 C 239.267 153.109,237.164 157.029,236.282 158.321 C 234.181 161.403,230.830 164.823,228.365 166.402 C 227.728 166.810,226.986 167.297,226.716 167.485 C 225.872 168.071,222.641 169.560,221.129 170.061 C 214.983 172.096,208.038 172.089,202.219 170.042 C 200.875 169.569,197.035 167.765,196.816 167.504 C 196.763 167.441,196.199 167.051,195.562 166.638 C 191.813 164.207,188.146 160.234,186.125 156.412 C 185.850 155.892,185.554 155.371,185.467 155.254 C 184.993 154.620,183.601 150.926,183.204 149.252 C 181.683 142.837,181.948 135.928,183.912 130.813 C 184.133 130.236,184.414 129.503,184.536 129.185 C 185.086 127.749,187.565 123.422,188.128 122.914 C 188.187 122.861,188.622 122.340,189.095 121.756 C 195.571 113.767,205.324 109.883,215.731 111.149 M325.299 114.579 C 324.881 114.873,324.736 124.874,325.139 125.628 C 325.352 126.025,334.908 126.220,335.507 125.840 C 335.697 125.720,335.740 124.440,335.700 120.103 L 335.649 114.520 330.654 114.424 C 326.729 114.348,325.581 114.381,325.299 114.579 M209.841 122.738 C 195.979 124.168,189.192 141.556,198.062 152.915 C 199.579 154.858,202.774 157.646,203.483 157.646 C 203.567 157.646,203.773 157.765,203.940 157.910 C 206.881 160.460,215.859 160.267,220.145 157.561 C 220.576 157.289,220.983 157.067,221.049 157.067 C 221.310 157.067,223.657 155.074,224.561 154.084 C 229.747 148.410,231.056 140.116,227.836 133.333 C 227.336 132.281,226.348 130.630,226.008 130.280 C 225.871 130.140,225.760 129.950,225.760 129.858 C 225.760 129.081,220.999 125.198,218.813 124.193 C 216.834 123.283,211.824 122.173,211.412 122.553 C 211.397 122.568,210.690 122.651,209.841 122.738 M366.233 131.235 C 363.570 132.042,361.636 134.486,361.612 137.075 C 361.564 142.321,366.288 145.555,370.890 143.425 C 378.206 140.039,373.950 128.898,366.233 131.235 M287.463 155.137 C 287.492 163.681,287.469 170.866,287.411 171.105 L 287.306 171.539 281.348 171.539 C 276.046 171.539,275.378 171.505,275.272 171.228 C 275.120 170.834,275.113 139.928,275.264 139.684 C 275.331 139.575,277.793 139.523,281.393 139.553 L 287.410 139.604 287.463 155.137 M329.436 155.334 C 325.501 156.618,323.889 160.749,325.819 164.603 C 327.317 167.596,331.132 168.877,334.243 167.432 C 341.849 163.898,337.411 152.731,329.436 155.334 M363.189 165.567 C 361.679 167.065,360.444 168.413,360.444 168.564 C 360.444 168.793,361.272 168.837,365.557 168.837 C 368.370 168.837,370.734 168.859,370.813 168.886 C 371.249 169.034,370.996 168.166,370.444 167.619 C 370.091 167.270,369.368 166.472,368.837 165.846 C 366.665 163.284,366.361 162.950,366.152 162.898 C 366.033 162.869,364.699 164.070,363.189 165.567 " stroke="none" fill="#5db5c8" fill-rule="evenodd"></path><path id="path4" d="" stroke="none" fill="#00ffff" fill-rule="evenodd"></path></g></svg>